<svg width="24" height="24" viewBox="0 0 24 24" fill="none" xmlns="http://www.w3.org/2000/svg">
<path d="M4 12C4 9.87827 4.84285 7.84344 6.34315 6.34315C7.84344 4.84285 9.87827 4 12 4C14.1217 4 16.1566 4.84285 17.6569 6.34315C19.1571 7.84344 20 9.87827 20 12C20 14.1217 19.1571 16.1566 17.6569 17.6569C16.1566 19.1571 14.1217 20 12 20C9.87827 20 7.84344 19.1571 6.34315 17.6569C4.84285 16.1566 4 14.1217 4 12V12ZM12 2C6.477 2 2 6.477 2 12C2 17.523 6.477 22 12 22C17.523 22 22 17.523 22 12C22 6.477 17.523 2 12 2ZM11.293 8.293L8.293 11.293C8.19749 11.3852 8.12131 11.4956 8.0689 11.6176C8.01649 11.7396 7.9889 11.8708 7.98775 12.0036C7.9866 12.1364 8.0119 12.2681 8.06218 12.391C8.11246 12.5139 8.18671 12.6255 8.28061 12.7194C8.3745 12.8133 8.48615 12.8875 8.60905 12.9378C8.73194 12.9881 8.86362 13.0134 8.9964 13.0123C9.12918 13.0111 9.2604 12.9835 9.3824 12.9311C9.50441 12.8787 9.61475 12.8025 9.707 12.707L11 11.414V15C11 15.2652 11.1054 15.5196 11.2929 15.7071C11.4804 15.8946 11.7348 16 12 16C12.2652 16 12.5196 15.8946 12.7071 15.7071C12.8946 15.5196 13 15.2652 13 15V11.414L14.293 12.707C14.4816 12.8892 14.7342 12.99 14.9964 12.9877C15.2586 12.9854 15.5094 12.8802 15.6948 12.6948C15.8802 12.5094 15.9854 12.2586 15.9877 11.9964C15.99 11.7342 15.8892 11.4816 15.707 11.293L12.707 8.293C12.5195 8.10553 12.2652 8.00021 12 8.00021C11.7348 8.00021 11.4805 8.10553 11.293 8.293V8.293Z" fill="white"/>
</svg>
