<svg width="68" height="68" viewBox="0 0 68 68" fill="none" xmlns="http://www.w3.org/2000/svg">
<path d="M21.6334 31.6333C21.3299 31.9503 21.092 32.3242 20.9334 32.7333C20.6 33.5449 20.6 34.4551 20.9334 35.2667C21.092 35.6758 21.3299 36.0497 21.6334 36.3667L31.6334 46.3667C32.261 46.9943 33.1123 47.347 34 47.347C34.8877 47.347 35.739 46.9943 36.3667 46.3667C36.9944 45.739 37.347 44.8877 37.347 44C37.347 43.1123 36.9944 42.261 36.3667 41.6333L32.0334 37.3333H44C44.8841 37.3333 45.7319 36.9821 46.357 36.357C46.9822 35.7319 47.3334 34.8841 47.3334 34C47.3334 33.1159 46.9822 32.2681 46.357 31.643C45.7319 31.0179 44.8841 30.6667 44 30.6667H32.0334L36.3667 26.3667C36.6791 26.0568 36.9271 25.6881 37.0963 25.2819C37.2656 24.8757 37.3527 24.44 37.3527 24C37.3527 23.56 37.2656 23.1243 37.0963 22.7181C36.9271 22.3119 36.6791 21.9432 36.3667 21.6333C36.0568 21.3209 35.6881 21.0729 35.2819 20.9037C34.8757 20.7345 34.4401 20.6473 34 20.6473C33.56 20.6473 33.1243 20.7345 32.7181 20.9037C32.3119 21.0729 31.9432 21.3209 31.6334 21.6333L21.6334 31.6333ZM0.666687 34C0.666687 40.5927 2.62165 47.0374 6.28437 52.519C9.94708 58.0006 15.153 62.2731 21.2439 64.796C27.3348 67.3189 34.037 67.979 40.503 66.6928C46.9691 65.4067 52.9085 62.232 57.5702 57.5702C62.232 52.9085 65.4067 46.969 66.6929 40.503C67.979 34.037 67.3189 27.3348 64.796 21.2439C62.2731 15.153 58.0007 9.94706 52.519 6.28434C47.0374 2.62163 40.5927 0.666664 34 0.666664C29.6226 0.666664 25.2881 1.52886 21.2439 3.20401C17.1997 4.87917 13.5251 7.33449 10.4298 10.4298C4.17858 16.681 0.666687 25.1594 0.666687 34V34ZM60.6667 34C60.6667 39.2742 59.1027 44.4299 56.1725 48.8152C53.2424 53.2005 49.0776 56.6185 44.2049 58.6368C39.3322 60.6551 33.9704 61.1832 28.7976 60.1543C23.6248 59.1253 18.8732 56.5856 15.1438 52.8562C11.4144 49.1268 8.87469 44.3752 7.84575 39.2024C6.81681 34.0296 7.3449 28.6678 9.36323 23.7951C11.3816 18.9224 14.7995 14.7576 19.1848 11.8275C23.5701 8.8973 28.7259 7.33333 34 7.33333C41.0725 7.33333 47.8552 10.1428 52.8562 15.1438C57.8572 20.1448 60.6667 26.9276 60.6667 34Z" fill="white"/>
</svg>

